<svg width="59" height="40" viewBox="0 0 59 40" fill="none" xmlns="http://www.w3.org/2000/svg">
<g clip-path="url(#clip0_0_778)">
<path d="M5.39088 7.68573C5.44707 8.51505 5.35342 9.23525 5.11366 9.84996C4.8739 10.4647 4.53298 10.9448 4.08718 11.294C3.64512 11.6432 3.15061 11.8469 2.60366 11.9051C2.15036 11.9524 1.69331 11.8905 1.23627 11.7159C0.83167 11.5632 0.453297 11.3194 0.101148 10.9921C0.0149835 10.9084 -0.0187329 10.7884 0.00374469 10.672C0.164834 9.9518 0.325924 9.23525 0.49076 8.52232C0.543208 8.28953 0.820431 8.17314 1.02648 8.30408C1.32243 8.48959 1.58842 8.57325 1.82818 8.55506C1.87688 8.55506 1.95555 8.53687 2.05295 8.50414C2.22528 8.40229 2.34891 8.24225 2.42383 8.02401C2.50251 7.7512 2.55121 7.27835 2.56619 6.60907C2.58118 5.9398 2.56619 5.17959 2.52873 4.32118L2.34142 0.374647C2.33018 0.174593 2.49876 0.0109119 2.70481 0.0109119C3.37913 0.021824 4.04972 0.0327361 4.72404 0.0436481C4.91136 0.0436481 5.06495 0.19278 5.07619 0.374647C5.18484 2.80804 5.29348 5.24507 5.39837 7.67846L5.39088 7.68573Z" fill="black"/>
<path d="M6.24878 11.0285C6.9306 7.75484 7.61616 3.55006 8.30922 0.374648C8.35418 0.160044 8.55273 -0.0109115 8.77751 0.00363789C10.0213 0.0800223 10.1337 0.0982091 11.4861 0.236429C11.6921 0.258253 11.8794 0.352824 11.9469 0.541966C13.0483 3.64463 14.1422 7.24925 15.2323 10.1118C15.2848 10.2501 15.1911 10.3992 15.0375 10.4137C13.6364 10.5592 12.2391 10.7047 10.838 10.8502C10.7031 10.8648 10.587 10.7666 10.5795 10.6356C10.5457 9.89361 10.5083 9.15159 10.4746 8.40957C10.4671 8.2859 10.5645 8.18405 10.6881 8.17314L11.059 8.14768C11.2163 8.13676 11.3137 7.984 11.2575 7.84214C11.044 7.30381 10.8305 6.76184 10.6132 6.21988C10.5308 6.00891 10.2161 6.03074 10.1674 6.24898C9.83021 7.76939 9.49679 9.30799 9.16337 10.8648C9.14464 10.9594 9.06222 11.0321 8.96107 11.043C8.14064 11.1267 7.32021 11.214 6.50352 11.2976C6.34618 11.3122 6.21881 11.1776 6.24878 11.0285Z" fill="black"/>
<path d="M23.7776 8.60598C23.8075 8.71874 23.7663 8.83877 23.6689 8.90788C23.0208 9.35892 22.4252 9.62081 21.8745 9.679C21.1777 9.75175 20.5745 9.54078 20.0613 9.03156C19.8215 8.79513 19.6005 8.51869 19.4019 8.20951C19.2446 7.96217 18.8512 8.07493 18.8662 8.36592L18.9336 9.74448C18.9411 9.89361 18.8288 10.0209 18.6752 10.0355C17.8959 10.1155 17.113 10.1991 16.3337 10.2792C16.1689 10.2974 16.0228 10.1737 16.0153 10.0136C15.8655 6.84914 15.7156 3.68464 15.5658 0.520143C15.5583 0.360099 15.6931 0.225517 15.858 0.225517C16.6447 0.236429 17.4276 0.250979 18.2144 0.261891C18.368 0.261891 18.4916 0.381924 18.4991 0.531055L18.5665 1.986C18.5815 2.28062 18.9936 2.35701 19.1172 2.09148C19.3757 1.54224 19.6379 0.996637 19.8964 0.458308C19.9451 0.356462 20.05 0.294627 20.1624 0.298264C20.9229 0.309176 21.6834 0.323726 22.4439 0.334638C22.6574 0.334638 22.7961 0.556517 22.6949 0.742022C21.9869 2.07329 21.2826 3.44458 20.582 4.85587C20.5595 4.89952 20.5483 4.95044 20.552 5.00137C20.5708 5.23779 20.6345 5.51423 20.7356 5.82341C20.848 6.16532 21.0166 6.46358 21.2376 6.71092C21.4586 6.95826 21.7359 7.06738 22.0618 7.04556C22.3128 7.02737 22.5788 6.92553 22.8597 6.73638C23.0208 6.62726 23.2456 6.71456 23.2981 6.90006C23.4554 7.47477 23.6165 8.04583 23.7738 8.61326L23.7776 8.60598Z" fill="black"/>
<path d="M41.8908 6.9619C41.902 7.0201 41.8758 7.08193 41.8234 7.11103C41.1678 7.48568 40.5534 7.71119 39.9764 7.76939C39.3396 7.83486 38.7589 7.71119 38.2307 7.38747C37.8336 7.14377 37.4777 6.79094 37.163 6.329C37.0843 6.2126 36.8933 6.27444 36.9008 6.41266C36.927 6.93644 36.9495 7.46022 36.9757 7.984C36.9757 8.05674 36.9232 8.12221 36.8483 8.12949C35.9529 8.22042 35.0613 8.31499 34.166 8.40593C34.0836 8.4132 34.0124 8.35501 34.0086 8.27498C33.8888 5.73247 33.7651 3.18996 33.6452 0.643812C33.6415 0.56379 33.7089 0.49468 33.7913 0.498318C34.9489 0.516505 36.1103 0.534691 37.2679 0.552878C38.2532 0.567428 39.0249 0.800218 39.5756 1.22579C40.1263 1.65136 40.4185 2.21879 40.4522 2.93898C40.471 3.36092 40.3511 3.7392 40.0888 4.08475C39.8416 4.40847 39.5269 4.68855 39.1448 4.92498C39.0998 4.95408 39.0698 5.005 39.0773 5.05592C39.1073 5.29235 39.2122 5.47422 39.392 5.60517C39.5943 5.74702 39.8528 5.80886 40.1712 5.7834C40.5459 5.75793 40.9392 5.62335 41.3513 5.39056C41.4375 5.34328 41.5461 5.38692 41.5686 5.48149C41.6772 5.97618 41.7859 6.46722 41.8908 6.95826V6.9619ZM37.2492 3.67737C37.4664 3.67009 37.6425 3.61189 37.7736 3.50641C37.886 3.41184 37.946 3.29544 37.9572 3.14995C37.9684 2.96081 37.8748 2.76803 37.7137 2.66254C37.5788 2.57161 37.4065 2.52796 37.1967 2.5316C36.9907 2.5316 36.7809 2.53887 36.5748 2.54251C36.4924 2.54251 36.4287 2.61162 36.4325 2.68801L36.4737 3.57188C36.4737 3.64827 36.5449 3.70647 36.6235 3.70647C36.8333 3.69919 37.0431 3.69192 37.2529 3.68464L37.2492 3.67737Z" fill="black"/>
<path d="M43.0933 2.92444C42.6176 2.93535 42.1455 2.94626 41.6698 2.95717C41.4525 2.96081 41.2689 2.79713 41.2577 2.58252L41.1827 1.03665C41.1715 0.811132 41.3588 0.625627 41.5911 0.629264C43.7826 0.665638 45.9705 0.698374 48.162 0.734747C48.3756 0.734747 48.5479 0.902066 48.5591 1.10939L48.6191 2.39338C48.6303 2.61162 48.4542 2.79713 48.2257 2.80077C47.7649 2.81168 47.3004 2.82259 46.8396 2.8335C46.6148 2.83714 46.435 3.02264 46.4462 3.24089C46.5024 4.41575 46.5586 5.58698 46.6148 6.76185C46.6261 6.96918 46.4687 7.14741 46.2552 7.16923C45.5471 7.24198 44.8354 7.31472 44.1273 7.39111C43.895 7.41657 43.6927 7.24561 43.6815 7.0201L43.5054 3.29545C43.4942 3.08448 43.3106 2.91716 43.0933 2.9208V2.92444Z" fill="black"/>
<path d="M48.3006 6.73275C49.0387 4.91407 50.0539 2.57525 50.8256 0.865692C50.8893 0.720198 51.0429 0.618352 51.204 0.636539C52.2417 0.767484 53.1034 0.865692 53.8264 1.01846C53.9201 1.03665 53.9987 1.10212 54.0474 1.18214C55.1001 2.82623 56.1528 4.36847 57.1943 5.80522C57.2655 5.89979 57.2018 6.03437 57.0819 6.04529C55.6471 6.19442 54.2123 6.34355 52.7774 6.49268C52.6875 6.50359 52.6051 6.43448 52.6014 6.34719L52.5489 5.23416C52.5452 5.1505 52.6089 5.07775 52.695 5.07411L53.1708 5.03774C53.2944 5.03046 53.3619 4.89588 53.2907 4.79767C53.0734 4.49941 52.8561 4.19387 52.6388 3.8847C52.5676 3.78649 52.4141 3.7974 52.3616 3.90652C51.9682 4.77221 51.5786 5.66336 51.189 6.57634C51.1665 6.62726 51.1178 6.66364 51.0579 6.67091C50.1963 6.76185 49.3309 6.84914 48.4692 6.94008C48.3494 6.95099 48.2594 6.83823 48.3044 6.72911L48.3006 6.73275Z" fill="black"/>
<path d="M24.2533 9.1916C24.9352 5.91798 25.6545 3.78285 26.3475 0.607438C26.3925 0.392834 26.591 0.221878 26.8158 0.236428C28.0596 0.312812 28.1719 0.330999 29.5243 0.469219C29.7304 0.491043 29.9177 0.585614 29.9851 0.774757C31.0865 3.87742 32.1467 5.41238 33.2369 8.27498C33.2893 8.4132 33.1957 8.56234 33.0421 8.57688C31.641 8.72238 30.2436 8.86787 28.8425 9.01337C28.7077 9.02792 28.5915 8.92971 28.584 8.79876C28.5503 8.05674 28.5129 7.31472 28.4791 6.5727C28.4716 6.44903 28.569 6.34719 28.6927 6.33627L29.0636 6.31081C29.2209 6.2999 29.3183 6.14713 29.2621 6.00527C29.0486 5.46695 28.835 4.92498 28.6178 4.38301C28.5353 4.17205 28.2206 4.19387 28.1719 4.41211C27.8348 5.93253 27.5014 7.47113 27.1679 9.02792C27.1492 9.12249 27.0668 9.19523 26.9656 9.20615C26.1452 9.28981 25.3248 9.3771 24.5081 9.46076C24.3507 9.47531 24.2234 9.34073 24.2533 9.1916Z" fill="black"/>
<path d="M1.91434 16.7864C1.34116 16.7937 0.767982 16.7973 0.194803 16.8046C0.146101 15.8079 0.101146 14.8113 0.0524445 13.8147C0.621877 13.771 1.19506 13.7237 1.76449 13.6801C1.81319 14.7167 1.86189 15.7497 1.91059 16.7864H1.91434Z" fill="black"/>
<path d="M4.60042 13.8983L4.89637 14.2148C5.04248 14.3712 5.31221 14.2657 5.30097 14.0511L5.27849 13.6146C5.271 13.4946 5.3684 13.3891 5.49203 13.3782C5.88913 13.3455 6.28624 13.3164 6.6796 13.2836C6.81072 13.2727 6.92685 13.3709 6.9306 13.4982L7.05422 16.0662C6.21881 16.3899 6.2263 16.3863 5.39088 16.7064C5.1736 16.459 4.95631 16.2153 4.73903 15.9753C4.59293 15.8152 4.31945 15.9243 4.33069 16.1353L4.34942 16.5209C4.35691 16.6482 4.25201 16.7573 4.1209 16.7573C3.70506 16.7609 3.28548 16.7646 2.86964 16.7682C2.74601 16.7682 2.64112 16.6736 2.63363 16.5536C2.60366 15.9389 2.57369 15.3242 2.54746 14.7095C3.57019 14.3021 3.57769 14.2984 4.59667 13.8911L4.60042 13.8983Z" fill="black"/>
<path d="M8.59394 14.3312C8.28675 14.3494 7.97581 14.3676 7.66861 14.3821C7.57121 14.3894 7.48879 14.313 7.4813 14.2184L7.44009 13.3891C7.43634 13.2982 7.50752 13.2181 7.60118 13.2109C8.90488 13.109 10.2123 13.0035 11.516 12.9017C11.6134 12.8944 11.6996 12.9672 11.7071 13.0654L11.752 13.982C11.7558 14.0766 11.6846 14.1566 11.5872 14.1602C11.2763 14.1784 10.9653 14.1966 10.6506 14.2111C10.5532 14.2148 10.4821 14.2948 10.4858 14.3894L10.587 16.5172C10.5907 16.6154 10.512 16.6955 10.4146 16.6955C9.96133 16.6991 9.50803 16.7027 9.05473 16.71C8.96108 16.71 8.8824 16.6373 8.87866 16.5463L8.78125 14.4876C8.77751 14.393 8.69509 14.3203 8.59394 14.3239V14.3312Z" fill="black"/>
<path d="M15.4796 16.6482C14.5692 16.6591 13.6589 16.6664 12.7486 16.6773C12.6324 14.1966 12.6849 15.3024 12.565 12.8217C13.4716 12.7489 14.3782 12.6762 15.2848 12.6071C15.3372 12.6034 15.3822 12.6398 15.3822 12.6907C15.3972 13.029 15.4159 13.3673 15.4309 13.7056C15.4309 13.7528 15.3934 13.7929 15.3447 13.7965C14.9176 13.822 14.4868 13.8474 14.0597 13.8729C14.011 13.8729 13.9736 13.9165 13.9736 13.9638L13.9811 14.1311C13.9811 14.1784 14.026 14.2184 14.0785 14.2148C14.3969 14.1966 14.7153 14.182 15.03 14.1639C15.0787 14.1639 15.1237 14.2002 15.1274 14.2475L15.1649 15.0659C15.1649 15.1132 15.1274 15.1569 15.0787 15.1569C14.7603 15.1678 14.4419 15.1787 14.1272 15.1896C14.0785 15.1896 14.0373 15.2332 14.041 15.2805L14.0485 15.426C14.0485 15.4733 14.0935 15.5097 14.1422 15.5097C14.573 15.4951 15.0001 15.4842 15.4309 15.4697C15.4796 15.4697 15.5208 15.506 15.5245 15.5533C15.5395 15.8843 15.5545 16.219 15.5732 16.55C15.5732 16.6009 15.5358 16.6409 15.4833 16.6409L15.4796 16.6482Z" fill="black"/>
<path d="M20.8929 16.128C20.9079 16.1935 20.8742 16.2663 20.8105 16.2954C20.4471 16.4809 20.1062 16.5718 19.7841 16.5754C19.4132 16.5791 19.0723 16.4736 18.7651 16.2663C18.589 16.1462 18.4316 15.9971 18.2818 15.8189C18.1881 15.7025 17.9933 15.7788 18.0008 15.9243L18.027 16.459C18.0308 16.5463 17.9596 16.6191 17.8697 16.6191C17.3977 16.6227 16.9256 16.63 16.4536 16.6336C16.3675 16.6336 16.2963 16.5682 16.2925 16.4881L16.1127 12.6907C16.109 12.6071 16.1726 12.538 16.2588 12.5307C16.9069 12.4798 17.555 12.4288 18.2069 12.3779C18.7763 12.3343 19.2221 12.4216 19.5405 12.6544C19.859 12.8871 20.0313 13.2254 20.05 13.6655C20.0613 13.9238 19.9938 14.1566 19.8402 14.3676C19.7054 14.5494 19.5368 14.7095 19.3345 14.8404C19.2783 14.8768 19.2483 14.9459 19.2671 15.0114C19.2933 15.1205 19.3495 15.2078 19.4356 15.2733C19.5518 15.3606 19.7054 15.4042 19.8889 15.4006C20.08 15.3933 20.2823 15.3387 20.4921 15.2332C20.5858 15.186 20.7019 15.2369 20.7206 15.3387C20.7768 15.6043 20.8293 15.8698 20.8855 16.1389L20.8929 16.128ZM18.2031 14.1384C18.3305 14.1311 18.4316 14.0984 18.5066 14.0329C18.5815 13.9711 18.619 13.8874 18.6115 13.7856C18.6077 13.6874 18.5628 13.611 18.4841 13.5564C18.4017 13.5019 18.3005 13.48 18.1732 13.4873C18.0758 13.4946 17.9783 13.4982 17.8809 13.5055C17.7948 13.5091 17.7273 13.5819 17.7311 13.6655L17.7461 14.0038C17.7498 14.0875 17.8248 14.1566 17.9147 14.1493C18.0121 14.1457 18.1057 14.1384 18.2031 14.1348V14.1384Z" fill="black"/>
<path d="M23.2681 12.4761C23.4179 12.698 23.5678 12.9199 23.7176 13.1454C23.8188 13.2982 24.066 13.2254 24.0585 13.0399L24.0136 12.0869C24.0098 11.9887 24.0848 11.9087 24.1822 11.8978C24.6092 11.8651 25.0363 11.8287 25.4671 11.7959C25.572 11.7887 25.6619 11.8651 25.6694 11.9669L25.853 15.8552C24.9277 16.1353 25.0363 16.1026 24.1147 16.3827C23.8937 16.0407 23.6727 15.7025 23.4516 15.3678C23.3505 15.2114 23.0995 15.2914 23.1107 15.4733L23.1557 16.379C23.1594 16.4809 23.077 16.5682 22.9721 16.5682C22.5226 16.5718 22.073 16.5754 21.6272 16.5827C21.5261 16.5827 21.4436 16.5063 21.4399 16.4117L21.2826 13.0981C22.3315 12.7671 22.2229 12.7999 23.2718 12.4689L23.2681 12.4761Z" fill="black"/>
<path d="M26.37 16.2808C26.7858 14.935 27.2017 13.0581 27.6138 11.6541C28.3156 11.6104 29.0174 11.568 29.7192 11.5268C30.3148 12.8908 30.9105 14.7858 31.5099 16.2117C31.5661 16.3426 31.4687 16.4881 31.3226 16.4881C30.5696 16.4954 29.8128 16.5027 29.0598 16.51C28.9474 16.51 28.8575 16.4263 28.85 16.3172L28.8088 15.4733C28.8051 15.3606 28.895 15.266 29.0074 15.2623H29.0111C29.161 15.2587 29.2546 15.1096 29.1909 14.9786C29.116 14.8222 29.0448 14.6695 28.9699 14.5167C28.8875 14.3494 28.6365 14.3712 28.584 14.5494C28.4042 15.1641 28.2244 15.7752 28.0446 16.379C28.0183 16.4627 27.9397 16.5209 27.8498 16.5245C27.4227 16.5281 26.9919 16.5318 26.5648 16.5391C26.4262 16.5391 26.325 16.4117 26.3662 16.2844L26.37 16.2808Z" fill="black"/>
<path d="M32.0681 13.0108C31.847 13.0217 31.626 13.0363 31.4087 13.0472C31.2364 13.0581 31.0903 12.9308 31.0828 12.7635L31.0304 11.6432C31.0229 11.4831 31.1465 11.3449 31.3113 11.3304C32.5289 11.2322 33.7464 11.1376 34.9639 11.0394C35.1363 11.0248 35.2861 11.1558 35.2974 11.3231L35.3535 12.5271C35.361 12.6907 35.2337 12.829 35.0651 12.8399C34.8403 12.8508 34.6155 12.8653 34.3908 12.8762C34.2222 12.8872 34.0948 13.0254 34.1023 13.1891L34.2447 16.1499C34.2521 16.3172 34.1135 16.459 33.9412 16.4627C33.5778 16.4663 33.2107 16.4699 32.8473 16.4736C32.6825 16.4736 32.5438 16.3499 32.5364 16.1899L32.3977 13.2945C32.3902 13.1272 32.2441 12.9999 32.0718 13.0108H32.0681Z" fill="black"/>
<path d="M37.4739 16.4299C37.0918 16.4336 36.7097 16.4372 36.3313 16.4408C36.1777 16.4408 36.0504 16.3245 36.0429 16.1753L35.8068 11.2467C35.7994 11.0976 35.9155 10.9703 36.0691 10.9557C36.4475 10.9266 36.8296 10.8939 37.208 10.8648C37.369 10.8502 37.5114 10.9703 37.5189 11.1303L37.7587 16.1389C37.7661 16.2954 37.6388 16.4299 37.4739 16.4299Z" fill="black"/>
<path d="M42.0219 10.7666C42.4415 11.0066 42.7824 11.3595 43.0409 11.8178C43.2994 12.2761 43.4417 12.7926 43.4717 13.3564C43.4979 13.9202 43.4043 14.4476 43.1907 14.9277C42.9772 15.4078 42.67 15.7861 42.2767 16.0662C41.8795 16.3426 41.4412 16.4809 40.958 16.4881C40.4747 16.4918 40.0214 16.3645 39.5981 16.1062C39.1785 15.848 38.8376 15.4988 38.5791 15.055C38.3206 14.6113 38.1782 14.1275 38.152 13.6001C38.1258 13.069 38.2232 12.578 38.4367 12.1124C38.6503 11.6504 38.9575 11.2685 39.3508 10.9739C39.7442 10.6793 40.1825 10.5083 40.6658 10.4719C41.149 10.4319 41.5986 10.5301 42.0219 10.7738V10.7666ZM41.3551 14.4112C41.5012 14.3057 41.6136 14.1675 41.696 13.9929C41.7747 13.8183 41.8121 13.6328 41.8009 13.4291C41.7896 13.2291 41.7372 13.0436 41.6435 12.8726C41.5461 12.7053 41.4225 12.5743 41.2652 12.4798C41.1078 12.3852 40.943 12.3452 40.7669 12.3525C40.5908 12.3634 40.4297 12.4216 40.2836 12.5343C40.1375 12.6434 40.0251 12.7853 39.9427 12.9599C39.8641 13.1345 39.8266 13.32 39.8378 13.5164C39.8453 13.7128 39.9015 13.8911 39.9952 14.0547C40.0926 14.2184 40.2162 14.3457 40.3735 14.4403C40.5309 14.5349 40.6957 14.5785 40.8718 14.5749C41.0479 14.5676 41.209 14.513 41.3551 14.4076V14.4112Z" fill="black"/>
<path d="M45.5546 10.2028C45.9442 10.963 46.3376 11.7341 46.731 12.5161C46.6935 11.7159 46.656 10.9193 46.6186 10.1191C47.1693 10.0755 47.72 10.0318 48.2707 9.98818C48.3718 12.0978 48.473 14.2075 48.5704 16.3172C48.0159 16.3245 47.4652 16.3281 46.9108 16.3354C46.5174 15.5388 46.1241 14.7531 45.7345 13.9784C45.7719 14.7677 45.8094 15.557 45.8468 16.3463C45.2737 16.3535 44.7005 16.3572 44.1273 16.3645C44.0337 14.3566 43.9362 12.3488 43.8426 10.341C44.412 10.2974 44.9852 10.2501 45.5546 10.2064V10.2028Z" fill="black"/>
<path d="M49.0312 16.0553C49.4283 14.2621 49.8254 11.836 50.2187 9.98818C51.3501 9.9227 51.2227 9.92998 52.3541 9.86451C52.9723 11.6723 53.5941 14.1166 54.216 15.9862C54.261 16.1208 54.1598 16.2626 54.01 16.2626C53.257 16.2699 52.504 16.2772 51.7472 16.2844C51.6311 16.2844 51.5337 16.1971 51.5262 16.0844L51.47 14.8695C51.4663 14.7531 51.5599 14.6513 51.6798 14.6476H51.6835C51.8334 14.644 51.9308 14.4985 51.8821 14.3639C51.8034 14.1493 51.721 13.9347 51.6423 13.7201C51.5674 13.5201 51.2677 13.5419 51.2227 13.7528C51.0542 14.5494 50.8856 15.3424 50.717 16.128C50.6945 16.2262 50.6084 16.2954 50.5072 16.2954C50.0839 16.299 49.6605 16.3026 49.2372 16.3063C49.0986 16.3063 48.9937 16.1826 49.0237 16.0516L49.0312 16.0553Z" fill="black"/>
<path d="M54.6356 9.48258C55.0289 9.44985 55.4261 9.42075 55.8194 9.38801C55.9618 9.3771 56.0854 9.48259 56.0929 9.6208L56.2877 13.7092C56.2952 13.8438 56.4113 13.9493 56.5499 13.942L57.5315 13.9092C57.6701 13.9056 57.7862 14.0075 57.7937 14.142C57.8237 14.7495 57.8499 15.3569 57.8799 15.9644C57.8874 16.1026 57.7712 16.219 57.6289 16.2226C56.7373 16.2299 55.8456 16.2408 54.9578 16.2481C54.8229 16.2481 54.7068 16.1462 54.703 16.0153L54.4033 9.7372C54.3958 9.60626 54.5007 9.4935 54.6356 9.48258Z" fill="black"/>
<path d="M10.5832 31.8596C10.6432 32.016 10.6019 32.1906 10.4746 32.2997C10.0363 32.6707 9.54924 32.9835 9.01727 33.2418C8.39914 33.5401 7.77726 33.7365 7.15163 33.8165C5.9828 33.9693 4.9226 33.7728 3.9748 33.2054C3.02324 32.638 2.259 31.7505 1.68208 30.5356C1.10515 29.3244 0.775481 27.8731 0.696809 26.2181C0.618138 24.5631 0.809197 23.0899 1.26624 21.8278C1.72703 20.5692 2.40136 19.6126 3.29672 18.9615C4.18833 18.3105 5.22605 18.0231 6.40238 18.0667C6.99803 18.0886 7.60118 18.2122 8.21557 18.4341C8.73256 18.6196 9.21208 18.8524 9.65039 19.1289C9.80024 19.2234 9.86393 19.4017 9.81523 19.569C9.53426 20.5329 9.25329 21.5077 8.97232 22.4934C8.90114 22.7371 8.61642 22.8608 8.38415 22.7407C7.9908 22.5407 7.5862 22.4425 7.17036 22.4461C6.66836 22.4498 6.20383 22.5989 5.7805 22.8972C5.35342 23.1954 5.02375 23.621 4.78774 24.1666C4.55172 24.7158 4.45057 25.3415 4.48429 26.0435C4.518 26.76 4.68284 27.382 4.97505 27.9058C5.26726 28.4296 5.63814 28.8188 6.08394 29.0697C6.52975 29.3207 6.99803 29.4262 7.48505 29.3862C7.97581 29.3462 8.42536 29.1716 8.82996 28.8733C9.05099 28.7096 9.37317 28.7933 9.47057 29.0479C9.83771 29.9973 10.2086 30.9321 10.5757 31.8596H10.5832Z" fill="black"/>
<path d="M19.6717 19.4017C20.6532 20.0346 21.4474 20.8602 22.0468 21.8751C22.65 22.8899 22.9759 23.9774 23.0321 25.1705C23.0883 26.3636 22.8635 27.4729 22.3615 28.5387C21.8595 29.6008 21.1477 30.4956 20.2299 31.2121C19.312 31.9323 18.2893 32.3797 17.1692 32.5252C16.0453 32.6707 14.9963 32.4889 14.0185 31.9469C13.0408 31.4049 12.2466 30.5829 11.6434 29.4735C11.0365 28.3677 10.6994 27.1092 10.6357 25.727C10.5682 24.3448 10.7855 23.0608 11.2838 21.9078C11.782 20.7511 12.4938 19.86 13.4154 19.2343C14.337 18.6087 15.3672 18.3323 16.4986 18.3759C17.63 18.4196 18.6901 18.776 19.6717 19.4089V19.4017ZM18.102 27.6039C18.4429 27.3493 18.7089 27.0219 18.8924 26.6218C19.0798 26.2217 19.1622 25.7961 19.1397 25.3415C19.1172 24.8868 18.9936 24.4685 18.7726 24.0793C18.5478 23.6937 18.2556 23.3846 17.8884 23.1518C17.5251 22.9226 17.1354 22.8062 16.7271 22.8099C16.315 22.8171 15.9404 22.9408 15.5995 23.1918C15.2586 23.4428 14.9926 23.7774 14.809 24.1957C14.6217 24.614 14.543 25.065 14.5655 25.5452C14.588 26.0253 14.7116 26.4654 14.9364 26.8582C15.1612 27.2511 15.4534 27.553 15.8168 27.7639C16.1801 27.9749 16.566 28.0658 16.9781 28.0331C17.3864 28.0004 17.7611 27.8585 18.1057 27.6003L18.102 27.6039Z" fill="black"/>
<path d="M31.5174 19.5508L31.6372 22.1078C31.6485 22.3297 31.4687 22.5152 31.2401 22.5189C30.3373 22.5298 29.4382 22.5407 28.5353 22.5516C28.3068 22.5516 28.127 22.7408 28.1382 22.9626L28.1682 23.5883C28.1794 23.8029 28.363 23.9702 28.584 23.9629C29.2022 23.9447 29.8203 23.9229 30.4347 23.9047C30.6557 23.8974 30.843 24.0647 30.8505 24.2794L30.9479 26.3563C30.9592 26.5672 30.7906 26.7491 30.5733 26.7673C29.9514 26.8109 29.3333 26.8582 28.7114 26.9019C28.4941 26.9164 28.3293 27.0983 28.3368 27.3129L28.4904 30.5174C28.5016 30.7211 28.348 30.8993 28.1382 30.9248C27.078 31.0594 26.0216 31.194 24.9614 31.3285C24.7254 31.3576 24.5156 31.1867 24.5044 30.9575L23.9536 19.358C23.9424 19.1289 24.1372 18.9397 24.3732 18.947C26.6247 19.027 28.8725 19.107 31.124 19.1871C31.3338 19.1943 31.5024 19.358 31.5136 19.5617L31.5174 19.5508Z" fill="black"/>
<path d="M40.2724 19.7363L40.3885 22.1442C40.396 22.2897 40.2761 22.4098 40.13 22.4098C39.1298 22.4207 38.1333 22.4352 37.133 22.4461C36.9832 22.4461 36.867 22.5698 36.8745 22.7117L36.9082 23.4428C36.9157 23.581 37.0356 23.6901 37.178 23.6865L39.3096 23.6174C39.452 23.6137 39.5756 23.7228 39.5793 23.8611L39.673 25.8543C39.6805 25.9925 39.5718 26.1089 39.4295 26.1199C38.7177 26.1708 38.0059 26.2217 37.2941 26.2726C37.1518 26.2835 37.0431 26.3999 37.0506 26.5381L37.193 29.5317C37.2005 29.6626 37.0993 29.779 36.9644 29.7972C35.8106 29.9427 34.6605 30.0882 33.5066 30.2337C33.353 30.2519 33.2182 30.1428 33.2107 29.9936L32.7124 19.5071C32.7049 19.358 32.8323 19.2343 32.9859 19.2416C35.3311 19.3253 37.6762 19.4089 40.0214 19.489C40.1563 19.4926 40.2687 19.5981 40.2761 19.7327L40.2724 19.7363Z" fill="black"/>
<path d="M48.945 28.2841C46.7385 28.5642 44.5319 28.8442 42.3216 29.1207C42.1043 29.1498 41.9095 28.9897 41.8983 28.7751L41.4787 19.9327C41.4675 19.7217 41.6473 19.5435 41.8683 19.5508C44.0936 19.6308 46.3189 19.7072 48.5404 19.7872C48.7352 19.7945 48.8926 19.9436 48.9001 20.1328L48.9825 21.9042C48.9937 22.1078 48.8251 22.2824 48.6116 22.2861L45.9667 22.3188C45.7532 22.3188 45.5884 22.4934 45.5958 22.7007V22.7517C45.6071 22.9481 45.7794 23.1045 45.9817 23.0972C46.6186 23.079 47.2592 23.0645 47.8961 23.0463C48.0984 23.0426 48.2707 23.1954 48.2819 23.3918L48.3494 24.7959C48.3606 24.9923 48.2032 25.1632 48.001 25.1741C47.3641 25.2178 46.7235 25.2578 46.0866 25.3014C45.8843 25.316 45.727 25.4833 45.7382 25.6797C45.7494 25.8871 45.933 26.0435 46.1428 26.0253C47.0232 25.9562 47.8998 25.8871 48.7802 25.8143C48.99 25.7961 49.1735 25.9525 49.1848 26.1599L49.2672 27.8949C49.2747 28.084 49.1361 28.2477 48.9413 28.2732L48.945 28.2841Z" fill="black"/>
<path d="M58.0672 27.131C55.8194 27.4148 53.5717 27.6985 51.3239 27.9858C51.1403 28.0076 50.9792 27.8767 50.9717 27.6985L50.6159 20.1982C50.6084 20.02 50.7582 19.8745 50.9418 19.8818L57.7375 20.1219C57.8986 20.1291 58.0297 20.2528 58.0372 20.4128L58.1047 21.8678C58.1121 22.0387 57.9735 22.1842 57.7937 22.1842L55.0215 22.217C54.8454 22.217 54.703 22.3625 54.7105 22.5334V22.5771C54.7218 22.7444 54.8641 22.8717 55.0327 22.8681C55.7108 22.8499 56.3889 22.8317 57.0669 22.8135C57.2393 22.8099 57.3816 22.9372 57.3891 23.1045L57.4453 24.2612C57.4528 24.4248 57.3254 24.5667 57.1531 24.5776C56.475 24.6213 55.7969 24.6685 55.1189 24.7122C54.9503 24.7231 54.8192 24.865 54.8267 25.0286C54.8342 25.1996 54.9878 25.3305 55.1638 25.316C56.0854 25.2433 57.007 25.1705 57.9286 25.0978C58.1046 25.0832 58.2582 25.2142 58.2657 25.3851L58.3332 26.811C58.3407 26.9674 58.2208 27.1056 58.0597 27.1274L58.0672 27.131Z" fill="black"/>
<path d="M6.45857 39.3016C6.55597 39.4435 6.48854 39.6363 6.3237 39.6908C6.13264 39.7527 5.9266 39.8036 5.70557 39.8436C5.35717 39.9054 5.01251 39.9382 4.66411 39.9345C4.016 39.9345 3.42784 39.8436 2.91085 39.6763C2.39012 39.509 1.98178 39.2725 1.68208 38.9743C1.38238 38.676 1.22129 38.3341 1.20255 37.9449C1.18382 37.5521 1.3112 37.1992 1.58093 36.8755C1.85066 36.5518 2.24027 36.2826 2.73852 36.068C3.24052 35.8534 3.8137 35.7116 4.45806 35.6534C4.78399 35.6243 5.11741 35.6206 5.45082 35.6497C5.65312 35.6643 5.84418 35.6897 6.02026 35.7261C6.19633 35.7625 6.28624 35.9516 6.20008 36.1008C6.07645 36.3226 5.95282 36.5409 5.8292 36.7555C5.773 36.8537 5.65687 36.9083 5.54448 36.8828C5.31221 36.8282 5.07245 36.81 4.82145 36.8282C4.54423 36.8464 4.28573 36.9046 4.04972 36.9955C3.80996 37.0901 3.62264 37.2102 3.48403 37.3593C3.34542 37.5084 3.28173 37.6721 3.28923 37.854C3.29672 38.0395 3.37914 38.1995 3.53273 38.3341C3.68633 38.4687 3.88488 38.5742 4.12839 38.6433C4.3719 38.7124 4.62664 38.7451 4.90012 38.7378C5.19608 38.7306 5.46206 38.6796 5.70557 38.5851C5.81796 38.5414 5.94908 38.5814 6.01651 38.6796C6.15887 38.887 6.30497 39.0943 6.44733 39.3053L6.45857 39.3016Z" fill="black"/>
<path d="M11.7446 35.3005C12.2803 35.4788 12.7073 35.7516 13.0333 36.1226C13.3555 36.4936 13.5315 36.9155 13.5503 37.3811C13.5727 37.8467 13.4416 38.2868 13.1532 38.6833C12.8647 39.0798 12.4638 39.3926 11.9469 39.6144C11.4299 39.84 10.8604 39.9454 10.2348 39.9454C9.60918 39.9454 9.02851 39.8363 8.49279 39.6326C7.95708 39.4289 7.52626 39.1525 7.20408 38.8106C6.8819 38.4687 6.70957 38.0977 6.69084 37.6903C6.67211 37.2793 6.80697 36.8973 7.09544 36.5263C7.3839 36.159 7.78475 35.8461 8.30173 35.5952C8.81497 35.3442 9.38441 35.1841 10.0063 35.1259C10.6282 35.0677 11.2051 35.1259 11.7408 35.3005H11.7446ZM10.8042 38.2795C10.9953 38.1922 11.1452 38.0795 11.25 37.9376C11.3549 37.7958 11.4074 37.643 11.3999 37.4793C11.3924 37.3156 11.3287 37.1665 11.2088 37.0319C11.089 36.8973 10.9279 36.7955 10.7293 36.7227C10.5308 36.65 10.3172 36.6245 10.0925 36.6391C9.86767 36.6536 9.65788 36.7082 9.46682 36.7991C9.27576 36.8901 9.12591 37.0065 9.02102 37.1483C8.91238 37.2902 8.86367 37.4357 8.87117 37.5921C8.87866 37.7485 8.94235 37.8903 9.06223 38.0176C9.18211 38.145 9.33945 38.2468 9.54175 38.3195C9.7403 38.3923 9.95384 38.425 10.1786 38.4214C10.4071 38.4141 10.6132 38.3705 10.8042 38.2832V38.2795Z" fill="black"/>
<path d="M16.6484 35.115C16.847 35.3733 17.0418 35.6315 17.2403 35.8934C17.3977 36.1008 17.7348 35.988 17.7236 35.7297C17.7086 35.4169 17.6936 35.1005 17.6787 34.7877C17.6712 34.6495 17.7798 34.5294 17.9222 34.5185C18.4541 34.4712 18.9861 34.4239 19.5218 34.3766C19.6717 34.3621 19.8065 34.4749 19.814 34.624C19.8777 35.9262 19.9377 37.2283 20.0013 38.5341C18.7201 38.9561 18.825 38.9197 17.5438 39.3453C17.3565 39.087 17.1692 38.8288 16.9818 38.5742C16.8282 38.3632 16.4873 38.4796 16.4986 38.7378L16.5398 39.6035C16.5473 39.7527 16.4237 39.8727 16.2738 39.8727C15.7119 39.8727 15.1537 39.8727 14.5917 39.8727C14.4494 39.8727 14.3332 39.7636 14.3257 39.6254L14.1534 35.9916C15.4421 35.5406 15.3672 35.5697 16.6559 35.1187L16.6484 35.115Z" fill="black"/>
<path d="M24.9015 34.0747L24.9689 35.4897C24.9726 35.5843 24.8977 35.6643 24.8003 35.6715C24.2646 35.7043 23.7326 35.737 23.1969 35.7734C23.0995 35.7807 23.0246 35.8607 23.0283 35.9553L23.0433 36.3081C23.047 36.4027 23.1332 36.479 23.2306 36.4718L24.3358 36.4136C24.4332 36.4099 24.5193 36.4827 24.5231 36.5772L24.5755 37.7085C24.5793 37.8067 24.5006 37.8867 24.4032 37.8903C24.0361 37.9012 23.6689 37.9122 23.3018 37.9231C23.2006 37.9231 23.1257 38.0067 23.1295 38.1049L23.2044 39.6872C23.2081 39.7854 23.1295 39.8691 23.0246 39.8691C22.4064 39.8691 21.7883 39.8691 21.1664 39.8691C21.0728 39.8691 20.9941 39.7963 20.9866 39.7017C20.9042 37.9449 20.818 36.1881 20.7356 34.4276C20.7319 34.3366 20.803 34.2566 20.8967 34.2457C22.1629 34.1329 23.4292 34.0202 24.6954 33.9074C24.7966 33.9002 24.8865 33.9729 24.8902 34.0711L24.9015 34.0747Z" fill="black"/>
<path d="M29.663 39.8691C28.4717 39.8691 27.2803 39.8691 26.0928 39.8691C25.9542 39.8691 25.838 39.7636 25.8305 39.6254L25.5683 34.0784C25.5608 33.9438 25.6657 33.8238 25.8081 33.8129C26.9919 33.7074 28.1794 33.6019 29.3633 33.4964C29.5131 33.4819 29.6442 33.5946 29.648 33.7401L29.7117 35.1078C29.7192 35.246 29.6105 35.366 29.4682 35.3733C29.0111 35.4024 28.5541 35.4315 28.097 35.4606C27.9547 35.4679 27.846 35.5879 27.8535 35.7261V35.7625C27.861 35.9043 27.9846 36.0135 28.1307 36.0062C28.4417 35.988 28.7526 35.9734 29.0636 35.9553C29.2097 35.948 29.3333 36.0571 29.3408 36.199L29.3895 37.2574C29.397 37.3993 29.2808 37.5193 29.1347 37.523C28.8238 37.5339 28.5129 37.5448 28.2019 37.5521C28.0558 37.5557 27.9434 37.6757 27.9472 37.8176C27.9547 37.9558 28.0745 38.0649 28.2169 38.0613C28.674 38.0504 29.1347 38.0358 29.5918 38.0249C29.7341 38.0213 29.854 38.1304 29.8615 38.2686L29.9252 39.6072C29.9327 39.7527 29.8128 39.8727 29.663 39.8727V39.8691Z" fill="black"/>
<path d="M36.7959 39.178C36.8108 39.2543 36.7734 39.338 36.7059 39.378C36.2339 39.6726 35.7881 39.8181 35.3648 39.8181C34.8853 39.8181 34.4469 39.6472 34.0498 39.3125C33.8288 39.127 33.6265 38.8942 33.4392 38.6178C33.3231 38.4469 33.0533 38.5305 33.0646 38.7342L33.1095 39.6508C33.1133 39.7636 33.0234 39.8581 32.9035 39.8581C32.2966 39.8581 31.6897 39.8581 31.079 39.8581C30.9704 39.8581 30.8805 39.7745 30.873 39.669L30.5845 33.5764C30.5808 33.4709 30.6632 33.38 30.7719 33.3691C31.6073 33.2927 32.4464 33.22 33.2819 33.1436C34.0161 33.0781 34.5931 33.2272 35.0051 33.5946C35.421 33.9656 35.6458 34.504 35.6795 35.206C35.6982 35.617 35.612 35.9844 35.421 36.3154C35.2486 36.61 35.0239 36.8646 34.7541 37.0719C34.6979 37.1156 34.6642 37.1811 34.6755 37.2465C34.7017 37.4539 34.7804 37.6175 34.9115 37.7412C35.0651 37.8831 35.2599 37.9522 35.4996 37.9485C35.7394 37.9413 35.9904 37.8612 36.2489 37.7048C36.3763 37.6284 36.5411 37.6939 36.5636 37.8358C36.6423 38.2832 36.7209 38.7306 36.7996 39.1816L36.7959 39.178ZM33.2893 35.9371C33.4542 35.9298 33.5816 35.8752 33.679 35.777C33.7764 35.6788 33.8213 35.5479 33.8101 35.3878C33.8026 35.2314 33.7464 35.1114 33.6415 35.0241C33.5366 34.9368 33.4017 34.9004 33.2369 34.9113C33.1133 34.9186 32.9859 34.9295 32.8623 34.9368C32.7499 34.9441 32.6675 35.035 32.6712 35.1441L32.7012 35.7661C32.7049 35.8752 32.8023 35.9625 32.9185 35.9553C33.0421 35.948 33.1657 35.9407 33.2893 35.9371Z" fill="black"/>
<path d="M41.2839 39.8691C40.1225 39.8691 38.9612 39.8691 37.7999 39.8691C37.635 39.8691 37.5002 39.7454 37.4927 39.5853L37.1817 33.0818C37.1742 32.9217 37.2979 32.7871 37.459 32.7726C38.6165 32.6707 39.7704 32.5652 40.928 32.4634C41.1003 32.4489 41.2539 32.5762 41.2614 32.7471L41.3363 34.333C41.3438 34.493 41.2165 34.6313 41.0516 34.6422C40.6208 34.6676 40.1937 34.6967 39.7629 34.7222C39.5981 34.7331 39.4707 34.8713 39.4782 35.0314V35.0714C39.4894 35.2351 39.6318 35.3624 39.8041 35.3551C40.0851 35.3405 40.3661 35.3224 40.6508 35.3078C40.8194 35.2969 40.9655 35.4242 40.973 35.5915L41.0329 36.821C41.0404 36.9846 40.9093 37.1265 40.7369 37.1301C40.456 37.141 40.175 37.1483 39.8903 37.1592C39.7217 37.1665 39.5868 37.3047 39.5943 37.4684C39.6018 37.6284 39.7404 37.7558 39.909 37.7521C40.3398 37.7412 40.7707 37.7303 41.1977 37.7194C41.3663 37.7157 41.5049 37.8394 41.5124 38.0031L41.5873 39.5562C41.5948 39.7272 41.4562 39.8691 41.2801 39.8691H41.2839Z" fill="black"/>
<path d="M44.723 32.7653C44.9515 33.2018 45.18 33.6419 45.4085 34.082C45.5247 34.3039 45.8693 34.2166 45.8543 33.9693L45.7719 32.2452C45.7644 32.1215 45.8618 32.016 45.9855 32.0051C46.5399 31.9542 47.0906 31.9069 47.6451 31.856C47.7799 31.8451 47.8961 31.9433 47.9035 32.0742L48.222 38.7524C46.9183 39.0761 47.173 39.0106 45.8693 39.3344C45.6183 38.8397 45.3711 38.3486 45.1201 37.8576C45.0077 37.6357 44.6593 37.723 44.6705 37.9704L44.7492 39.6217C44.7567 39.7527 44.648 39.8618 44.5132 39.8618C43.9325 39.8618 43.3518 39.8618 42.7712 39.8618C42.6438 39.8618 42.5426 39.7636 42.5351 39.6435L42.2392 33.3982C43.6028 33.0454 43.3556 33.1109 44.7192 32.758L44.723 32.7653Z" fill="black"/>
<path d="M54.1636 38.9779C54.2347 39.167 54.1636 39.3817 53.995 39.4944C53.7964 39.6254 53.5792 39.7345 53.3506 39.8181C53.006 39.9418 52.6613 40.0036 52.3129 40.0036C51.6648 40.0036 51.0729 39.8218 50.5484 39.4726C50.0202 39.1234 49.5969 38.6324 49.2822 38.0031C48.9637 37.3738 48.7877 36.6536 48.7465 35.828C48.709 35.0023 48.8176 34.2675 49.0724 33.6128C49.3271 32.9581 49.7018 32.4343 50.1963 32.0378C50.687 31.6414 51.2565 31.4086 51.9046 31.3504C52.2305 31.3213 52.5639 31.3504 52.9011 31.4304C53.1146 31.4813 53.3132 31.5541 53.5042 31.6414C53.6953 31.7287 53.7927 31.9469 53.7402 32.1506C53.6204 32.598 53.5005 33.0454 53.3843 33.4891C53.3207 33.7328 53.0584 33.8747 52.8112 33.7983C52.6538 33.751 52.4965 33.7328 52.3316 33.7438C52.0544 33.7619 51.7997 33.8601 51.5637 34.0311C51.3276 34.2057 51.1478 34.4421 51.0167 34.7367C50.8856 35.035 50.8294 35.366 50.8481 35.737C50.8669 36.1153 50.9568 36.4463 51.1179 36.73C51.2789 37.0137 51.485 37.2283 51.7322 37.3775C51.9795 37.5266 52.238 37.5993 52.5077 37.5921C52.7025 37.5884 52.8823 37.5448 53.0509 37.4648C53.3019 37.3447 53.6016 37.4502 53.6953 37.7048C53.8526 38.1304 54.01 38.556 54.1673 38.9852L54.1636 38.9779Z" fill="black"/>
<path d="M58.6254 39.8691C57.509 39.8691 56.3889 39.8691 55.2725 39.8691C55.0739 39.8691 54.9091 39.7163 54.9016 39.5235L54.5232 31.5904C54.5157 31.3977 54.6618 31.234 54.8604 31.2158C55.973 31.1176 57.0857 31.0157 58.1983 30.9175C58.4081 30.8993 58.5954 31.0557 58.6029 31.2594L58.6928 33.1727C58.7003 33.3691 58.5467 33.5364 58.3444 33.551C57.9585 33.5764 57.5727 33.5983 57.1868 33.6237C56.9845 33.6346 56.8309 33.8056 56.8384 34.002V34.0529C56.8496 34.253 57.0257 34.4094 57.2318 34.3948C57.4678 34.3803 57.7075 34.3694 57.9436 34.3548C58.1496 34.3439 58.3257 34.4967 58.3369 34.6967L58.4081 36.1808C58.4193 36.3808 58.2582 36.5518 58.0485 36.5591C57.8124 36.5663 57.5727 36.5736 57.3367 36.5809C57.1306 36.5882 56.9695 36.7555 56.977 36.9592C56.9845 37.1556 57.1568 37.3084 57.3591 37.3047C57.745 37.2938 58.1346 37.2829 58.5205 37.2756C58.7228 37.272 58.8914 37.4248 58.9026 37.6212L58.9925 39.498C59.0038 39.7017 58.8352 39.8763 58.6216 39.8763L58.6254 39.8691Z" fill="black"/>
</g>
<defs>
<clipPath id="clip0_0_778">
<rect width="59" height="40" fill="white"/>
</clipPath>
</defs>
</svg>
