<svg width="323" height="262" viewBox="0 0 323 262" fill="none" xmlns="http://www.w3.org/2000/svg">
<g clip-path="url(#clip0_2_1621)">
<path d="M315.229 103.233C313.403 88.4094 304.757 74.4114 289.38 71.0154C283.023 69.6121 276.664 70.2367 270.971 72.4505C273.24 66.0676 274.777 59.0905 272.902 52.5165C270.504 44.1093 263.372 39.552 256.317 35.2744C248.687 30.6449 240.724 26.6067 232.552 23.0244C216.403 15.9539 199.391 11.2266 181.979 8.58152C172.292 7.10727 162.491 6.364 152.691 6.36951C147.7 6.37486 142.689 6.54337 137.716 6.97565C132.713 7.41213 128.909 8.99023 126.15 13.4168C120.871 21.8941 117.06 31.7829 114.096 41.2819C111.451 49.7577 109.691 58.4844 108.622 67.2982C87.4319 60.9856 65.8504 56.0365 44.0171 52.3999C43.662 52.1527 43.2766 51.9296 42.8354 51.7546C31.2193 47.1067 21.0025 56.5478 16.0498 66.1741C10.4765 77.0142 7.2618 88.9464 6.40847 101.098C5.57335 112.928 7.07138 125.111 10.9764 136.319C12.8481 141.697 15.1093 147.141 19.746 150.721C22.8485 153.117 26.6281 154.216 30.3514 153.856C30.378 153.975 30.3998 154.09 30.4314 154.21C30.4716 154.38 30.4676 154.533 30.5028 154.703C50.6501 151.329 70.7925 147.955 90.9398 144.581C88.4183 152.291 87.8996 161.263 90.7096 168.853C92.2418 172.993 95.0894 175.288 99.0217 176.996C103.405 178.899 107.944 180.504 112.465 182.048C119.665 184.51 126.99 186.597 134.392 188.37C134.944 194.592 136.502 206.568 137.323 212.758C133.948 210.375 128.634 207.308 124.642 205.995C116.334 203.262 109.845 204.121 102.864 209.456C96.418 214.377 91.6128 217.521 90.7497 225.443C89.8801 233.429 91.5865 242.528 97.1449 248.577C98.7007 250.268 100.595 250.555 102.258 250.022C103.058 250.658 104.113 251.042 105.451 251.017C144.894 250.193 184.359 251.988 223.564 256.394C227.351 256.819 229.1 253.715 228.751 250.741C231.656 243.298 235.21 235.485 234.906 227.32C234.645 220.347 232.516 216.523 226.505 212.644C220.056 208.482 207.722 212.295 200.75 214.396C199.407 214.798 200.566 209.403 199.271 209.92C201.602 205.145 204.125 200.445 206.965 195.753C207.141 195.465 207.277 195.161 207.394 194.841C212.374 194.543 217.347 194.111 222.309 193.524C230.976 192.503 238.432 190.072 241.999 181.397C243.584 177.535 246.531 169.265 247.015 164.899C254.085 170.888 262.799 177.083 271.691 175.998C286.519 174.188 298.592 163.822 305.807 151.15C313.951 136.855 317.25 119.53 315.239 103.229L315.229 103.233Z" fill="white"/>
<path d="M239.18 63.4203C236.316 53.1365 225.661 44.4472 214.657 48.1209C204.372 51.5553 197.316 62.4663 194.856 72.6229C192.19 83.6221 194.292 98.7012 205.659 104.146C207.181 104.874 208.87 105.047 210.353 104.569C218.263 105.452 226.293 101.881 231.574 95.4859C238.51 87.081 242.148 74.0935 239.18 63.4203ZM225.664 84.9849C223.276 89.2722 218.772 93.4009 213.91 93.96C218.466 85.3252 216.339 73.7215 208.318 67.7182C209.985 64.7214 212.154 62.0252 214.743 60.1233C219.796 56.4054 225.559 58.7604 228.068 64.3986C230.871 70.7039 228.889 79.1968 225.669 84.985L225.664 84.9849Z" fill="black"/>
<path d="M285.256 101.277C283.457 100.387 281.399 100.319 279.742 101.204C278.146 100.692 276.331 100.977 274.774 102.583C269.086 108.457 264.914 115.872 263.216 123.906C261.648 131.324 261.152 140.554 265.362 147.252C267.635 150.876 271.059 153.493 275.417 153.858C279.686 154.216 283.791 151.942 286.579 148.85C292.35 142.458 295.173 133.223 295.589 124.749C296.014 116.147 293.7 105.461 285.256 101.281L285.256 101.277ZM280.411 138.992C279.753 140.096 279.167 140.928 278.446 141.644C278.151 141.939 277.447 142.55 277.356 142.607C277.457 142.541 276.581 142.905 276.455 142.981C276.391 142.989 276.336 142.998 276.261 143.011C276.098 143.006 275.858 142.921 275.798 142.914C275.774 142.889 275.745 142.863 275.716 142.843C275.643 142.796 275.623 142.786 275.584 142.765C275.454 142.638 275.323 142.51 275.203 142.378C275.088 142.251 275.044 142.211 275.019 142.2C274.814 141.902 274.634 141.585 274.464 141.268C274.308 140.982 273.873 139.999 273.91 140.109C273.928 140.164 273.574 138.91 273.494 138.566C273.146 137.089 273.14 136.92 273.06 135.421C272.915 132.586 273.087 129.565 273.618 127.055C274.846 121.275 277.423 116.03 281.28 111.642C281.532 111.867 281.842 112.137 281.923 112.229C282.4 112.762 282.351 112.741 282.494 112.967C282.86 113.557 283.186 114.165 283.471 114.798C283.752 115.42 283.649 115.189 283.9 116.033C284.073 116.618 284.221 117.212 284.35 117.805C284.487 118.444 284.598 119.096 284.676 119.748C284.679 119.812 284.682 119.872 284.694 120.016C284.73 120.508 284.752 121.004 284.769 121.496C284.954 127.59 283.547 133.727 280.421 138.982L280.411 138.992Z" fill="black"/>
<path d="M44.5125 72.1633C43.4746 71.7052 42.4335 71.5593 41.4306 71.6575C39.2776 69.8913 36.4404 70.2645 34.2831 71.9247C28.6245 76.2815 27.2353 84.0607 26.1038 90.6812C24.7867 98.3532 23.6601 106.511 24.4792 114.298C24.8258 117.564 25.6358 120.714 27.6018 123.398C30.0223 126.698 34.5133 129.402 38.5922 127.345C42.4657 125.387 42.8743 121.257 43.5275 117.436C44.222 113.358 44.8622 109.274 45.4433 105.178C46.745 95.9929 47.711 86.7648 48.3657 77.5138C48.5516 74.9153 46.6618 73.1162 44.5124 72.1682L44.5125 72.1633Z" fill="black"/>
<path d="M318.733 102.744C316.874 87.6467 308.066 73.3818 292.398 69.9238C285.924 68.4926 279.445 69.134 273.647 71.3897C275.959 64.8888 277.524 57.7836 275.612 51.0847C273.169 42.5176 265.906 37.8776 258.719 33.5173C250.947 28.7998 242.838 24.6885 234.514 21.0427C218.066 13.8406 200.735 9.02566 182.998 6.32758C173.128 4.82879 163.144 4.06594 153.161 4.07665C148.075 4.07959 142.975 4.25075 137.908 4.69548C132.811 5.1444 128.937 6.7455 126.126 11.26C120.749 19.8935 116.869 29.9689 113.846 39.6449C111.152 48.2781 109.358 57.1676 108.27 66.1446C86.6819 59.7126 64.7017 54.6689 42.4591 50.9672C42.0992 50.715 41.7038 50.4916 41.2529 50.3114C29.4211 45.5786 19.0117 55.1933 13.9651 65.0006C8.29267 76.0365 5.01767 88.1953 4.14361 100.575C3.29297 112.622 4.81963 125.039 8.79368 136.452C10.7024 141.931 13.0006 147.474 17.7247 151.122C20.8856 153.558 24.734 154.679 28.5266 154.315C28.5533 154.435 28.5799 154.555 28.6064 154.679C28.6464 154.854 28.6423 155.013 28.6776 155.182C49.1979 151.744 69.7182 148.31 90.2385 144.871C87.6689 152.724 87.1408 161.864 90.0017 169.594C91.5617 173.81 94.4625 176.151 98.4733 177.89C102.935 179.825 107.562 181.467 112.166 183.038C119.505 185.543 126.962 187.674 134.501 189.479C135.066 195.816 135.759 202.137 136.597 208.441C133.159 206.017 129.498 203.949 125.432 202.61C116.972 199.823 108.065 200.923 100.952 206.358C94.3856 211.371 90.9257 219.181 90.044 227.251C89.1557 235.385 90.8924 244.653 96.5568 250.814C98.1415 252.54 100.07 252.828 101.768 252.287C102.583 252.933 103.657 253.327 105.02 253.298C145.202 252.458 185.399 254.286 225.339 258.776C229.195 259.208 230.975 256.045 230.623 253.016C233.582 245.436 237.204 237.476 236.893 229.158C236.626 222.055 233.549 214.825 227.422 210.874C220.851 206.633 211.699 207.826 204.597 209.969C203.23 210.38 201.909 210.906 200.593 211.433C202.966 206.57 205.541 201.781 208.433 197.001C208.609 196.708 208.755 196.395 208.868 196.075C213.941 195.774 219.004 195.33 224.06 194.736C232.886 193.694 240.482 191.221 244.117 182.379C245.734 178.444 246.457 174.044 246.953 169.599C254.154 175.696 265.306 177.981 274.367 176.881C289.473 175.038 301.769 164.475 309.119 151.568C317.413 137.01 320.775 119.354 318.727 102.754L318.733 102.744ZM164.077 195.532C161.837 209.988 160.683 224.587 160.622 239.219C160.614 240.865 161.225 242.13 162.143 243.026C143.207 242.236 124.252 242.016 105.296 242.411C104.791 242.422 104.333 242.5 103.899 242.613C100.778 238.63 100.425 232.749 100.857 227.916C101.318 222.711 103.899 217.467 108.152 214.447C118.649 206.987 130.914 217.22 138.738 224.096C138.83 224.178 138.938 224.24 139.035 224.317C139.194 225.243 139.334 226.169 139.498 227.091C140.018 229.985 143.369 231.733 146.081 231.059C149.086 230.313 150.563 227.366 150.044 224.467C148.1 213.646 146.608 202.768 145.572 191.877C151.755 193.072 157.991 194.002 164.24 194.748C164.174 195.004 164.108 195.26 164.067 195.527L164.077 195.532ZM206.578 220.716C209.084 219.912 212.122 219.242 214.415 219.063C217.188 218.847 219.933 218.997 221.707 220.113C223.071 220.972 224.248 222.559 225.111 224.614C225.101 224.639 225.46 225.685 225.456 225.665C225.619 226.234 225.758 226.813 225.866 227.396C225.941 227.785 226 228.173 226.049 228.566C226 228.188 225.99 228.192 226.019 228.58C226.061 229.454 226.053 230.326 226.001 231.198C225.664 236.773 223.33 242.217 221.2 247.433C204.099 245.599 186.955 244.245 169.789 243.387C170.802 242.535 171.479 241.249 171.489 239.503C171.545 224.876 172.699 210.283 174.938 195.831C182.021 196.361 189.116 196.593 196.209 196.518C190.77 206.186 186.126 216.301 182.42 226.758C181.469 229.441 183.293 232.84 186.043 233.546C189.009 234.301 191.802 232.792 192.817 229.917C192.966 229.494 193.14 229.092 193.294 228.675C197.115 225.118 201.689 222.291 206.582 220.726L206.578 220.716ZM241.167 136.455C239.353 144.972 237.874 153.562 236.69 162.19C236.19 165.856 235.881 169.557 235.321 173.212C234.898 175.978 234.309 179.424 232.119 181.391C229.874 183.411 226.14 183.583 223.294 183.941C219.051 184.476 214.792 184.862 210.526 185.149C202.059 185.715 193.563 185.838 185.078 185.525C166.304 184.839 147.679 181.989 129.564 177.005C120.478 174.505 111.121 171.745 102.526 167.844C99.3295 166.393 99.233 162.84 99.0545 159.588C98.7852 154.672 99.7375 150.005 101.553 145.455C101.924 144.528 102.005 143.682 101.911 142.911C114.131 140.865 126.346 138.819 138.565 136.773C139.04 136.786 139.526 136.763 140.019 136.647C143.383 135.846 146.781 135.205 150.21 134.748C150.608 134.693 151 134.644 151.397 134.595C151.661 134.562 151.924 134.534 152.192 134.501C151.974 134.525 151.755 134.549 151.537 134.573C152.437 134.408 153.408 134.394 154.316 134.323C156.038 134.194 157.768 134.109 159.498 134.064C162.332 133.994 165.122 131.809 165.067 128.763C165.011 125.935 162.816 123.112 159.773 123.187C152.252 123.375 144.72 124.327 137.4 126.077C137.38 126.082 137.36 126.096 137.335 126.1C136.935 126.085 136.513 126.109 136.075 126.182C101.993 131.889 67.9049 137.597 33.822 143.31C32.3942 142.415 30.5529 142.189 28.6151 143.21C21.8727 146.775 18.1227 130.325 17.1849 126.562C14.9904 117.763 14.3426 108.712 15.1005 99.6815C15.8516 90.7255 18.1277 81.7741 21.8304 73.5735C23.9521 68.8777 27.5541 61.8943 32.8421 60.3842C72.2167 66.2625 110.87 76.6893 147.91 91.2846C149.027 91.7249 150.022 91.7406 150.905 91.5154C159.992 95.8949 169.08 100.274 178.168 104.659C180.721 105.89 184.109 105.645 185.646 102.898C186.959 100.551 186.622 96.7244 183.888 95.4094C177.241 92.2035 170.594 89.0025 163.947 85.7966C166.999 83.2223 169.463 79.8741 171.089 76.1424C172.91 71.9645 173.712 67.3933 173.963 62.8526C174.229 58.0892 174.136 52.89 172.564 48.3421C169.62 39.8066 162.469 33.315 153.331 32.3954C143.498 31.4034 135.563 37.6206 131.871 46.357C128.432 54.5 128.07 64.1304 129.495 73.0036C125.931 71.7812 122.373 70.5392 118.788 69.3907C120.449 53.5605 124.795 37.9086 131.839 23.6303C133.014 21.2457 134.341 16.6682 136.912 15.6733C138.287 15.1434 140.282 15.3683 141.74 15.2819C143.887 15.1537 146.044 15.0654 148.194 15.0117C156.415 14.8068 164.647 15.1229 172.826 15.9484C188.32 17.5127 203.594 21.0498 218.266 26.2673C225.758 28.9347 233.081 32.039 240.179 35.6383C247.071 39.1331 254.373 42.8617 260.489 47.6308C266.207 52.0921 266.277 58.2229 264.41 64.7551C262.194 72.5081 258.475 79.8355 255.621 87.3638C249.569 103.329 244.738 119.762 241.177 136.46L241.167 136.455ZM144.741 52.1083C143.869 51.352 142.978 50.7836 141.904 50.5477C143.364 46.9703 145.759 43.9427 149.931 43.2815C154.908 42.4923 159.389 45.6028 161.615 50.1031C164.099 55.1407 163.652 63.0632 162.228 68.5604C160.704 74.4469 156.444 80.248 150.151 80.0413C149.75 80.031 149.373 80.061 149.015 80.1162C149.015 80.1162 149.005 80.116 149 80.1109C154.157 71.3973 152.428 58.7923 144.736 52.1082L144.741 52.1083ZM280.493 164.19C275.193 166.335 268.95 167.081 263.358 165.762C258.584 164.638 250.807 161.279 250.467 155.463C250.389 154.083 249.882 152.979 249.147 152.127C252.058 135.059 256.4 118.207 261.948 101.818C262.345 100.653 262.77 99.5034 263.181 98.3486C263.736 97.7728 264.191 97.0308 264.463 96.0709C267.326 85.8899 276.978 78.745 287.66 80.0663C299.398 81.5141 305.78 91.3529 307.723 102.213C311.614 123.943 302.742 155.178 280.493 164.19Z" fill="black"/>
</g>
<defs>
<clipPath id="clip0_2_1621">
<rect width="315.491" height="252.846" fill="white" transform="matrix(0.999669 0.0257407 -0.025796 0.999667 6.64429 0.228699)"/>
</clipPath>
</defs>
</svg>
